# xmcd
#
# Track frame offsets:
#	150
#	15757
#	37852
#	56227
#	68887
#	97580
#	112835
#	130387
#	149545
#	165857
#	180032
#	195462
#	208192
#
# Disc length: 2981 seconds
#
# Revision: 1
# Processed by: cddbd v1.5.1PL0 Copyright (c) Steve Scherf et al.
# Submitted via: audiograbber 1.83.01
#
DISCID=9b0ba30d
DTITLE=RUE de BLUES - DEEP PLAY
DYEAR=1996
DGENRE=Blues
TTITLE0=Don't it make me blue
TTITLE1=Congo Square 
TTITLE2=El Don Blues
TTITLE3=I'm a Woman
TTITLE4=Dreamtime
TTITLE5=Route 66
TTITLE6=Comin' Home Baby
TTITLE7=Man in Blue
TTITLE8=Broken Dreams
TTITLE9=Four on six
TTITLE10=Every Day I Have the Blues
TTITLE11=Nannabocca Blues
TTITLE12=Crossroads
EXTD=
EXTT0=
EXTT1=
EXTT2=
EXTT3=
EXTT4=
EXTT5=
EXTT6=
EXTT7=
EXTT8=
EXTT9=
EXTT10=
EXTT11=
EXTT12=
PLAYORDER=
